<svg xmlns="http://www.w3.org/2000/svg" xmlns:xlink="http://www.w3.org/1999/xlink" width="24.214" height="30" viewBox="0 0 24.214 30">
  <defs>
    <style>
      .cls-1 {
        fill: none;
      }

      .cls-2 {
        clip-path: url(#clip-path);
      }

      .cls-3 {
        fill:#fff;
      }
    </style>
    <clipPath id="clip-path">
      <rect class="cls-1" width="24.214" height="30"/>
    </clipPath>
  </defs>
  <g id="Group_253" data-name="Group 253" transform="translate(-117 336)">
    <g id="logo" class="cls-2" transform="translate(117 -336)">
      <path id="Path_2" data-name="Path 2" class="cls-3" d="M415.52,520.424s6.393-3.1,5.953-11.675c-.424-8.273-7.7-11.65-10.553-11.767a1.353,1.353,0,0,1-.857-.322c-.271-.244-.3-.625-.071-1.211a.776.776,0,0,1,.276-.346,1.938,1.938,0,0,0,.712-2.4,1.675,1.675,0,0,0-3.222.412s.056.564.519.135c0,0,.113-.824.718-.929a1.191,1.191,0,0,1,1.584,1.107,1.294,1.294,0,0,1-.759,1.24,1.4,1.4,0,0,0-.656,1.055c-.057.721.028.656-.785,1.176a13.243,13.243,0,0,0-7.1,2.8s-5.887,4.752-3.367,9.213c0,0,.069.108.219-.181s.289.417.29.714a1.635,1.635,0,0,0,1.1,1.345,1.776,1.776,0,0,1,1.176,1.175,2,2,0,0,0,.863.793.753.753,0,0,0,.01.207c.022.093.1.283.1.317a1.628,1.628,0,0,1-.046.477,4.89,4.89,0,0,0,1.033,2.186,4.259,4.259,0,0,0,1.235.992s.4.177.628,1.642.4.967,1.026,1.8.2.155.967.968c0,0,.422.243.473.268s.638.134.084-.409-.549-1.373-.264-1.486a1.891,1.891,0,0,0,.838-1.041c.106-.406.336-.741.685-.724s.708-.164.723-1.135a.9.9,0,0,1,.56-.6s.676-.812-.075-1.22-.626-.445-.626-.445a4.507,4.507,0,0,0-1.7-.4s-.112-.042-.157-.391a1.532,1.532,0,0,0-1.118-.928,2.109,2.109,0,0,1-1.141-.659c-.137-.191-.189-.384-.487-.356s-.368.249-1.121-.157a1.2,1.2,0,0,0-1.179.313.833.833,0,0,1-.906-.819.5.5,0,0,0-.548-.484s-.37-.042-.068-.785c0,0,.01-.415-.579-.173,0,0-.164.113-.182.189s-.154-.077-.154-.077a1.014,1.014,0,0,1-.013-.39,2.459,2.459,0,0,0,.263-.693c.018-.261-.024-.488.307-.571a1.155,1.155,0,0,1,.354.187c.1.1.242.232.333.322s.334.458.535.357.1-.152.081-.394a5.5,5.5,0,0,1-.081-.717c.019-.153.026-.289.437-.638a1.838,1.838,0,0,0,.541-.83,3.272,3.272,0,0,1,.659-.576,3.28,3.28,0,0,0,.692-.719s.149-.243.551.07a.836.836,0,0,0,.355-.162.506.506,0,0,0,.625-.173l.2-.176s-.094-.128-.344-.029-.417.191-.481-.377c0,0,.046-.156-.173-.391a2.4,2.4,0,0,0,.895.012.693.693,0,0,1,.579-.128l.176-.041s.458.2.411-.231a1.215,1.215,0,0,0-.783-.956,2.872,2.872,0,0,1-1.047-.714c-.13-.17-.213-.46-.4-.5a2.094,2.094,0,0,0-.927-.056s-.38.153-.4.292.153.49-.012.626-.6.481-.545.594-.465-.354-.621-.947-.33-.719-.389-.766a.611.611,0,0,1,.218-.591c.207-.111,7.189-5.232,14.482-.369a.94.94,0,0,0-.207.96,1.255,1.255,0,0,1-.038,1.007c-.011.119-.038.624.359.721s.6.156.6.156a1.761,1.761,0,0,1-.293,1.239,2.875,2.875,0,0,1-1.058.624c-.233.11.143.283.378.371s.182.436.1.5-.834.026-.891.1-.094.173-.048.423a1.7,1.7,0,0,0-.022.715c.089.229.144.347.591.716,0,0,.084.151-.458.32,0,0-.144-.025-.193.394s-.972.779-1.1,1.287a.993.993,0,0,0-.263.682,3,3,0,0,1-.068,1.334c-.168.319-.15.628.52.961,0,0,.184.04.312.552a1.579,1.579,0,0,0,1.865.726s.1-.045.326-.164c0,0,.053-.194.565.383,0,0,.206.155.1.636,0,0-.093.158.1.424s.017.782-.17,1.021a4.4,4.4,0,0,0-.561.69,6.776,6.776,0,0,1-.514,1.2,4.327,4.327,0,0,0-.733,1.511.707.707,0,0,0-.085.364C415.194,520.158,415.246,520.454,415.52,520.424Z" transform="translate(-397.281 -491.637)"/>
    </g>
  </g>
</svg>
